<svg width="48" height="48" viewBox="0 0 48 48" fill="none" xmlns="http://www.w3.org/2000/svg">
<path d="M7.80798 28.0479H9.68798L10.268 26.1599H13.828L14.412 28.0479H17.972V21.7979L20.238 28.0479H21.92L24.186 21.9919V28.0479H25.806V19.7139H23.15L21.08 25.3139L19.008 19.7139H16.094V27.6559L13.182 19.7139H10.916L7.80798 28.0479ZM40 28.0479L36.892 23.8799L40 19.7139H37.734L35.662 22.1879L33.98 19.7139H27.18V28.0479H33.784L35.854 25.3119L37.926 28.0479H40ZM11.952 21.4079L12.988 24.2719H10.916L11.952 21.4079ZM28.8 21.6019H32.944L34.626 23.8819L32.75 26.3539H28.8V24.7259H32.556V23.0339H28.8V21.6019Z" fill="#2DABC8"/>
<path d="M38.762 12.0939C40.34 12.0939 41.618 13.3739 41.618 14.9519V33.0479C41.618 34.6259 40.338 35.9039 38.762 35.9039H9.238C8.48052 35.9033 7.75419 35.6023 7.21838 35.0669C6.68257 34.5315 6.38106 33.8053 6.38 33.0479V14.9519C6.38 13.3739 7.66 12.0939 9.238 12.0939H38.762ZM9.238 9.71387C7.84896 9.7144 6.51696 10.2664 5.53476 11.2486C4.55256 12.2308 4.00053 13.5628 4 14.9519V33.0479C4.00053 34.4369 4.55256 35.7689 5.53476 36.7511C6.51696 37.7333 7.84896 38.2853 9.238 38.2859H38.762C40.1514 38.2853 41.4837 37.733 42.4659 36.7504C43.4482 35.7678 44 34.4353 44 33.0459V14.9539C44 13.5645 43.4482 12.232 42.4659 11.2493C41.4837 10.2667 40.1514 9.7144 38.762 9.71387H9.238Z" fill="#2DABC8"/>
</svg>
