<svg width="80" height="80" viewBox="0 0 80 80" fill="none" xmlns="http://www.w3.org/2000/svg">
<path d="M50.3672 52.2813C50.3094 52.2007 50.2331 52.1353 50.1447 52.0904C50.0563 52.0456 49.9585 52.0226 49.8594 52.0234H46.4062C45.8984 52.0234 45.6016 52.6016 45.8984 53.0156L51.6641 60.9922C51.9141 61.3359 52.4219 61.3359 52.6719 60.9922L61.5938 48.6484C61.8906 48.2344 61.5938 47.6562 61.0859 47.6562H57.625C57.4219 47.6562 57.2344 47.75 57.1172 47.9141L52.1562 54.7734L50.3672 52.2813ZM53.75 23.9062V20.1562C53.75 19.8125 53.4688 19.5312 53.125 19.5312H23.125C22.7812 19.5312 22.5 19.8125 22.5 20.1562V23.9062C22.5 24.25 22.7812 24.5312 23.125 24.5312H53.125C53.4688 24.5312 53.75 24.25 53.75 23.9062ZM23.125 30.7812C22.7812 30.7812 22.5 31.0625 22.5 31.4062V35.1562C22.5 35.5 22.7812 35.7812 23.125 35.7812H37.5C37.8438 35.7812 38.125 35.5 38.125 35.1562V31.4062C38.125 31.0625 37.8438 30.7812 37.5 30.7812H23.125ZM37.5 66.5625H16.25V11.5625H60V34.6875C60 35.0313 60.2812 35.3125 60.625 35.3125H65C65.3438 35.3125 65.625 35.0313 65.625 34.6875V8.4375C65.625 7.05469 64.5078 5.9375 63.125 5.9375H13.125C11.7422 5.9375 10.625 7.05469 10.625 8.4375V69.6875C10.625 71.0703 11.7422 72.1875 13.125 72.1875H37.5C37.8438 72.1875 38.125 71.9063 38.125 71.5625V67.1875C38.125 66.8437 37.8438 66.5625 37.5 66.5625ZM68.9531 41.5L53.9531 36.2891C53.8828 36.2656 53.8203 36.2578 53.75 36.2578C53.6797 36.2578 53.6094 36.2656 53.5469 36.2891L38.5469 41.5C38.4243 41.5416 38.3178 41.6204 38.2422 41.7255C38.1666 41.8305 38.1256 41.9565 38.125 42.0859V61.7031C38.125 61.8984 38.2109 62.0781 38.3672 62.1953L53.3672 73.9297C53.4766 74.0156 53.6172 74.0625 53.75 74.0625C53.8828 74.0625 54.0234 74.0156 54.1328 73.9297L69.1328 62.1953C69.2813 62.0781 69.375 61.8984 69.375 61.7031V42.0859C69.375 41.8203 69.2031 41.5859 68.9531 41.5ZM64.5312 59.6641L53.75 68.0937L42.9688 59.6641V45.0781L53.75 41.3281L64.5312 45.0781V59.6641Z" fill="black"/>
</svg>
