<svg width="48" height="48" viewBox="0 0 48 48" fill="none" xmlns="http://www.w3.org/2000/svg">
<path d="M4.3 8.63594L3.392 8.64194C3.092 8.65194 2.786 8.66794 2.488 8.72194C2.03764 8.79311 1.61061 8.97019 1.24205 9.23861C0.873486 9.50704 0.573921 9.85914 0.368 10.2659C0.228 10.5419 0.14 10.8219 0.088 11.1259C0.032 11.4219 0.014 11.7259 0.008 12.0259L0 12.4439V35.5579C0 35.6966 0.002 35.8346 0.006 35.9719C0.014 36.2719 0.032 36.5779 0.086 36.8759C0.138 37.1746 0.232667 37.4606 0.37 37.7339C0.646242 38.2766 1.08736 38.7177 1.63 38.9939C1.906 39.1339 2.186 39.2239 2.49 39.2779C2.786 39.3319 3.09 39.3499 3.39 39.3579L3.806 39.3639H44.194L44.608 39.3579C44.908 39.3499 45.214 39.3319 45.512 39.2779C45.81 39.2239 46.094 39.1359 46.368 38.9959C46.9125 38.7207 47.3547 38.2784 47.63 37.7339C47.77 37.4579 47.86 37.1779 47.912 36.8739C47.966 36.5779 47.984 36.2739 47.992 35.9739C47.996 35.8353 47.998 35.6966 47.998 35.5579L48 35.0659V12.4419C48 12.3033 47.9973 12.1653 47.992 12.0279C47.9882 11.725 47.9614 11.4228 47.912 11.1239C47.8151 10.5221 47.5311 9.96615 47.1003 9.53496C46.6695 9.10376 46.1137 8.81929 45.512 8.72194C45.2131 8.67249 44.9109 8.64574 44.608 8.64194C44.3061 8.63372 44.004 8.63172 43.702 8.63594H4.3ZM4.3 9.65994H44.184C44.3147 9.65994 44.446 9.66194 44.578 9.66594C44.808 9.67394 45.078 9.68594 45.328 9.72994C45.546 9.76994 45.728 9.82994 45.902 9.91794C46.2526 10.0964 46.5376 10.3814 46.716 10.7319C46.8076 10.9133 46.8709 11.1075 46.904 11.3079C46.948 11.5539 46.96 11.8239 46.966 12.0559C46.97 12.1853 46.972 12.3166 46.972 12.4499V35.5539C46.972 35.6833 46.97 35.8139 46.966 35.9459C46.96 36.1759 46.948 36.4459 46.902 36.6959C46.8583 36.9901 46.7446 37.2694 46.5706 37.5106C46.3966 37.7518 46.1673 37.9477 45.902 38.0819C45.7219 38.1731 45.5291 38.2365 45.33 38.2699C45.0829 38.3068 44.8338 38.3282 44.584 38.3339L44.184 38.3399H3.812C3.67867 38.3399 3.548 38.3379 3.42 38.3339C3.16891 38.3283 2.91841 38.3069 2.67 38.2699C2.452 38.2299 2.27 38.1699 2.094 38.0819C1.74162 37.9067 1.4564 37.6207 1.282 37.2679C1.19044 37.0866 1.12705 36.8924 1.094 36.6919C1.05405 36.4452 1.03266 36.1959 1.03 35.9459L1.026 35.5519V12.4479L1.03 12.0539C1.038 11.8259 1.05 11.5579 1.094 11.3039C1.134 11.0879 1.194 10.9059 1.282 10.7299C1.46077 10.3801 1.74572 10.0958 2.096 9.91794C2.27671 9.82657 2.47025 9.76318 2.67 9.72994C2.92 9.68594 3.19 9.67194 3.42 9.66594L3.812 9.65994H4.3ZM13.72 17.0599C13.12 17.0919 12.384 17.4579 11.96 17.9719C11.578 18.4119 11.24 19.1319 11.328 19.8079C12.004 19.8679 12.678 19.4699 13.104 18.9719C13.514 18.4559 13.794 17.7659 13.72 17.0619V17.0599ZM18.134 17.8999V28.8859H19.838V25.1319H22.198C24.354 25.1319 25.868 23.6539 25.868 21.5079C25.868 19.3679 24.384 17.8979 22.252 17.8979L18.134 17.8999ZM19.838 19.3379H21.802C23.28 19.3379 24.124 20.1299 24.124 21.5159C24.124 22.8999 23.28 23.6999 21.796 23.6999H19.838V19.3379ZM13.53 19.9379C12.63 19.9579 11.87 20.4979 11.43 20.4979C10.96 20.4979 10.244 19.9699 9.468 19.9839C8.9634 19.9973 8.47103 20.1422 8.03958 20.4042C7.60813 20.6662 7.25255 21.0364 7.008 21.4779C5.954 23.2939 6.73 25.9879 7.756 27.4679C8.254 28.1999 8.854 29.0059 9.644 28.9759C10.39 28.9479 10.684 28.4919 11.59 28.4919C12.498 28.4919 12.762 28.9759 13.55 28.9619C14.37 28.9479 14.884 28.2299 15.38 27.4959C15.952 26.6619 16.186 25.8559 16.2 25.8139C16.186 25.7979 14.62 25.1979 14.606 23.3959C14.59 21.8879 15.836 21.1699 15.894 21.1259C15.19 20.0859 14.094 19.9699 13.714 19.9399L13.53 19.9379ZM29.938 20.7319C27.958 20.7319 26.726 21.7979 26.634 23.2439H28.188C28.332 22.5279 28.926 22.0719 29.878 22.0719C30.882 22.0719 31.484 22.6039 31.484 23.4939V24.1119L29.29 24.2399C27.388 24.3479 26.314 25.2079 26.314 26.6079C26.314 28.0479 27.41 29.0219 28.978 29.0219C30.03 29.0219 31.042 28.4599 31.506 27.5679H31.544V28.8859H33.12V23.3659C33.12 21.7599 31.88 20.7319 29.938 20.7319ZM33.818 20.8759L36.71 28.8939C36.71 28.8999 36.564 29.3739 36.564 29.3879C36.314 30.2079 35.904 30.5299 35.142 30.5299C35.004 30.5299 34.73 30.5299 34.608 30.4999V31.8319C34.728 31.8539 35.142 31.8699 35.278 31.8699C36.938 31.8699 37.73 31.2459 38.414 29.3039L41.414 20.8759H39.678L37.654 27.3939H37.624L35.598 20.8739L33.818 20.8759ZM31.484 25.2539V25.8859C31.484 26.9279 30.584 27.7199 29.436 27.7199C28.552 27.7199 27.974 27.2639 27.974 26.5619C27.974 25.8779 28.53 25.4419 29.512 25.3759L31.484 25.2539Z" fill="black"/>
</svg>
