<svg width="48" height="48" viewBox="0 0 48 48" fill="none" xmlns="http://www.w3.org/2000/svg">
<path d="M44.8 40H3.2C2.35131 40 1.53737 39.6629 0.937258 39.0627C0.337142 38.4626 0 37.6487 0 36.8L0 11.2C0 10.3513 0.337142 9.53737 0.937258 8.93726C1.53737 8.33714 2.35131 8 3.2 8H44.8C45.6487 8 46.4626 8.33714 47.0627 8.93726C47.6629 9.53737 48 10.3513 48 11.2V36.8C48 37.6487 47.6629 38.4626 47.0627 39.0627C46.4626 39.6629 45.6487 40 44.8 40ZM25.4827 20.8C24.5724 20.8 23.6995 21.1616 23.0559 21.8052C22.4123 22.4488 22.0507 23.3218 22.0507 24.232C22.0507 25.1422 22.4123 26.0152 23.0559 26.6588C23.6995 27.3024 24.5724 27.664 25.4827 27.664C26.3929 27.664 27.2658 27.3024 27.9095 26.6588C28.5531 26.0152 28.9147 25.1422 28.9147 24.232C28.9147 23.3218 28.5531 22.4488 27.9095 21.8052C27.2658 21.1616 26.3929 20.8 25.4827 20.8ZM28.5947 20.992L31.3067 27.544H31.976L34.736 20.992H33.3853L31.6573 25.28L29.9507 20.988H28.592L28.5947 20.992ZM12.6213 25.5427L11.8187 26.3187C12.2573 27.052 13.048 27.536 13.9507 27.536L14.036 27.5347H14.032C14.3139 27.5544 14.5969 27.516 14.8634 27.4216C15.1298 27.3273 15.374 27.1792 15.5807 26.9865C15.7874 26.7938 15.9523 26.5606 16.065 26.3014C16.1778 26.0422 16.236 25.7626 16.236 25.48V25.4347V25.4373C16.236 24.424 15.8093 23.9587 14.3973 23.444C13.6507 23.1653 13.4293 22.9853 13.4293 22.6413C13.4293 22.2373 13.8293 21.932 14.3587 21.932C14.5537 21.9372 14.7452 21.986 14.9189 22.0748C15.0926 22.1636 15.2443 22.2902 15.3627 22.4453L15.3653 22.448L16.016 21.5947C15.5079 21.1369 14.8479 20.8842 14.164 20.8853H14.1373H14.1387C13.8869 20.8693 13.6344 20.9043 13.3964 20.9882C13.1585 21.0721 12.9399 21.2032 12.7539 21.3737C12.5678 21.5442 12.4182 21.7505 12.3138 21.9802C12.2095 22.21 12.1526 22.4584 12.1467 22.7107V22.7133C12.1467 23.6013 12.544 24.044 13.7173 24.468C14.0507 24.5747 14.336 24.6973 14.6053 24.8453L14.5787 24.832C14.6924 24.9004 14.7866 24.9969 14.8522 25.1123C14.9178 25.2277 14.9526 25.358 14.9533 25.4907V25.4933C14.9523 25.7329 14.8565 25.9623 14.6868 26.1314C14.5172 26.3005 14.2875 26.3957 14.048 26.396L13.9827 26.3933H13.9853H13.968C13.3773 26.3933 12.868 26.048 12.628 25.5493L12.624 25.54L12.6213 25.5427ZM20.028 20.8493H20.008C19.1142 20.848 18.2559 21.1986 17.6187 21.8253C17.1496 22.2899 16.8291 22.8833 16.6979 23.5303C16.5668 24.1773 16.6309 24.8487 16.8821 25.4592C17.1332 26.0698 17.5602 26.5919 18.1087 26.9593C18.6572 27.3267 19.3025 27.5228 19.9627 27.5227H20.0027C20.572 27.5227 21.108 27.3853 21.5827 27.1413L21.5627 27.1507V25.688C21.1973 26.1147 20.66 26.384 20.0587 26.3867L19.9907 26.388C19.7063 26.3884 19.4248 26.3304 19.1637 26.2178C18.9026 26.1051 18.6674 25.94 18.4726 25.7328C18.2778 25.5257 18.1275 25.2807 18.0311 25.0132C17.9347 24.7456 17.8941 24.4612 17.912 24.1773V24.1827L17.9107 24.1093C17.9107 22.9493 18.8427 22.0067 19.9987 21.9907H20C20.6227 21.9947 21.18 22.2707 21.56 22.7067L21.5627 22.7093V21.2427C21.0966 20.9852 20.5725 20.8507 20.04 20.852H20.0293L20.028 20.8493ZM40.904 24.8147H41.0667L42.7907 27.3827H44.324L42.3107 24.692C42.7389 24.6297 43.1274 24.4071 43.3977 24.0692C43.668 23.7314 43.7999 23.3034 43.7667 22.872V22.8773C43.7667 21.68 42.9427 20.992 41.5067 20.992H39.66V27.3813H40.9053L40.904 24.8147ZM35.3067 20.992V27.3813H38.8373V26.3H36.5467V24.5747H38.748V23.492H36.5467V22.0747H38.8373V20.9933L35.3067 20.992ZM10.108 20.992V27.3813H11.352V20.992H10.108ZM4.26667 20.992V27.3813H6.08933C6.91678 27.4269 7.73152 27.1626 8.37467 26.64L8.368 26.6453C8.72775 26.3453 9.01786 25.9706 9.21818 25.5472C9.4185 25.1237 9.52422 24.6617 9.528 24.1933V24.1573C9.52846 23.7177 9.43758 23.2828 9.26113 22.8802C9.08467 22.4776 8.82649 22.116 8.50294 21.8184C8.17939 21.5208 7.79754 21.2937 7.3816 21.1514C6.96566 21.0092 6.52469 20.9549 6.08667 20.992L6.09867 20.9907L4.26667 20.992ZM5.848 26.3H5.51333V22.0733H5.848C6.15338 22.0399 6.46237 22.0688 6.75621 22.1584C7.05006 22.2481 7.32261 22.3965 7.55733 22.5947L7.55333 22.592C7.97733 22.9853 8.24133 23.5453 8.24133 24.1667V24.1827V24.1813V24.1947C8.24133 24.8227 7.97733 25.3893 7.55467 25.7893L7.55333 25.7907C7.0711 26.1805 6.45416 26.3636 5.83733 26.3L5.84667 26.3013L5.848 26.3ZM41.268 23.9333H40.9053V21.9973H41.288C42.072 21.9973 42.4867 22.3253 42.4867 22.9453C42.4867 23.5907 42.0653 23.9333 41.268 23.9333Z" fill="#FC873A"/>
</svg>
