<svg width="48" height="48" viewBox="0 0 48 48" fill="none" xmlns="http://www.w3.org/2000/svg">
<path d="M34.0244 20.1278C35.3439 20.1278 36.3636 20.4854 37.1435 21.2005C37.9232 21.9155 38.283 22.8689 38.283 24.0607V29.7812H36.6036V28.4704H36.5436C35.8238 29.5431 34.8041 30.0793 33.6045 30.0793C32.5848 30.0793 31.6851 29.7813 30.9653 29.1855C30.3055 28.5896 29.8856 27.7554 29.8856 26.8615C29.8856 25.9081 30.2455 25.1334 30.9653 24.5375C31.6851 23.9416 32.7048 23.7033 33.9044 23.7033C34.984 23.7033 35.8238 23.8821 36.4836 24.2991V23.8821C36.4836 23.3259 36.2746 22.7697 35.8566 22.4073L35.7637 22.3327C35.2839 21.9156 34.6841 21.6772 34.0244 21.6772C33.0047 21.6772 32.2249 22.0944 31.6851 22.9286L30.1256 21.975C31.0852 20.7236 32.3449 20.1278 34.0244 20.1278ZM25.567 16.0757C26.6433 16.0757 27.6661 16.4478 28.4839 17.1416L28.6261 17.2674C29.4658 17.9825 29.8856 19.0551 29.8856 20.1873C29.8856 21.3195 29.4658 22.3326 28.6261 23.1072C27.7864 23.8818 26.7666 24.299 25.567 24.299L22.688 24.2394V29.7812H20.8884V16.0757H25.567ZM34.2642 25.1333C33.5445 25.1333 32.9447 25.312 32.4649 25.6696C31.985 25.9675 31.7451 26.3846 31.7451 26.9209C31.7451 27.3976 31.9851 27.8147 32.3449 28.0531C32.7648 28.3511 33.2446 28.5298 33.7245 28.5298C34.3962 28.5298 35.068 28.2702 35.5935 27.7996L35.7038 27.6956C36.3036 27.1593 36.6036 26.5038 36.6036 25.7887C36.0637 25.3716 35.2839 25.1332 34.2643 25.1332M25.6871 17.7441H22.6881V22.5115H25.6871C26.3468 22.5115 27.0066 22.2731 27.4266 21.7965C28.3862 20.9026 28.3862 19.4129 27.4866 18.519L27.4266 18.4593C26.9466 17.9827 26.3468 17.6847 25.687 17.7443M48 20.4258L42.0619 33.9525H40.2624L42.4817 29.245L38.5829 20.4854H40.5023L43.3214 27.2189H43.3814L46.1406 20.4854H48V20.4258Z" fill="#5F6368"/>
<path d="M15.5501 23.0478C15.5501 22.5115 15.4901 21.9752 15.4301 21.439H7.93262V24.478H12.1912C12.0113 25.4314 11.4715 26.3252 10.6318 26.8616V28.828H13.2109C14.7105 27.4575 15.5502 25.4314 15.5502 23.0479" fill="#4285F4"/>
<path d="M7.93261 30.735C10.0919 30.735 11.8913 30.0199 13.2109 28.8281L10.6318 26.8617C9.91195 27.3383 9.01223 27.6363 7.93261 27.6363C5.89317 27.6363 4.09373 26.2658 3.49392 24.3589H0.854858V26.3849C2.23439 29.0664 4.93355 30.735 7.93261 30.735Z" fill="#34A853"/>
<path d="M3.49385 24.3585C3.13404 23.4051 3.13404 22.3325 3.49385 21.3195V19.2935H0.854789C-0.28493 21.4983 -0.28493 24.1202 0.854789 26.3846L3.49385 24.3585Z" fill="#FBBC04"/>
<path d="M7.93252 18.1019C9.07214 18.1019 10.1518 18.519 10.9916 19.2937L13.2708 17.0293C11.8312 15.7183 9.91186 14.9437 7.99242 15.0032C4.99336 15.0032 2.2343 16.6718 0.914673 19.3533L3.55383 21.3793C4.09364 19.4724 5.89308 18.1019 7.93252 18.1019Z" fill="#EA4335"/>
</svg>
