<svg width="80" height="80" viewBox="0 0 80 80" fill="none" xmlns="http://www.w3.org/2000/svg">
<path d="M40.845 16.8966C40.5889 16.7459 40.2971 16.6665 40 16.6665C39.7028 16.6665 39.4111 16.7459 39.155 16.8966L9.38498 34.4083L11.075 37.2816L40 20.2666L68.925 37.2833L70.615 34.4099L60 28.1666V19.9999C60 19.5579 59.8244 19.134 59.5118 18.8214C59.1993 18.5089 58.7753 18.3333 58.3333 18.3333H53.3333C52.8913 18.3333 52.4674 18.5089 52.1548 18.8214C51.8422 19.134 51.6666 19.5579 51.6666 19.9999V23.2616L40.845 16.8966ZM23.3333 41.6666H41.6666V51.6666H23.3333V41.6666Z" fill="black"/>
<path fill-rule="evenodd" clip-rule="evenodd" d="M40 23.3333L16.6667 36.6666V59.9999H8.33332C7.8913 59.9999 7.46737 60.1755 7.15481 60.4881C6.84225 60.8006 6.66666 61.2246 6.66666 61.6666C6.66666 62.1086 6.84225 62.5325 7.15481 62.8451C7.46737 63.1577 7.8913 63.3333 8.33332 63.3333H68.3333C68.7753 63.3333 69.1993 63.1577 69.5118 62.8451C69.8244 62.5325 70 62.1086 70 61.6666C70 61.2246 69.8244 60.8006 69.5118 60.4881C69.1993 60.1755 68.7753 59.9999 68.3333 59.9999H63.3333V36.6666L40 23.3333ZM40 27.1716L20 38.6016V59.9999H46.6667V41.6666H56.6667V59.9999H60V38.5999L40 27.1716Z" fill="black"/>
</svg>
