<svg width="48" height="48" viewBox="0 0 48 48" fill="none" xmlns="http://www.w3.org/2000/svg">
<path d="M8.72622 42.8163V40.3674C8.72622 39.4285 8.14984 38.8164 7.1619 38.8164C6.66803 38.8164 6.1329 38.9796 5.7624 39.5103C5.4744 39.0613 5.06284 38.8164 4.4454 38.8164C4.03365 38.8164 3.62228 38.9387 3.29284 39.3877V38.898H2.42847V42.8163H3.29284V40.653C3.29284 39.9593 3.66334 39.6326 4.23972 39.6326C4.81572 39.6326 5.10409 40 5.10409 40.653V42.8163H5.96847V40.653C5.96847 39.9593 6.37984 39.6326 6.91497 39.6326C7.49134 39.6326 7.77934 40 7.77934 40.653V42.8163H8.72622ZM21.527 38.898H20.1277V37.7144H19.2633V38.898H18.4813V39.6733H19.2632V41.4694C19.2632 42.3675 19.6337 42.8979 20.6216 42.8979C20.9921 42.8979 21.4035 42.7756 21.6918 42.6123L21.4447 41.8775C21.1978 42.0408 20.9098 42.0817 20.7039 42.0817C20.2923 42.0817 20.1277 41.8368 20.1277 41.4285V39.6733H21.527V38.898ZM28.8538 38.8162C28.3599 38.8162 28.0307 39.0613 27.8248 39.3877V38.898H26.9604V42.8163H27.8248V40.6123C27.8248 39.9593 28.1128 39.5919 28.6479 39.5919C28.8125 39.5919 29.0184 39.6328 29.183 39.6735L29.43 38.8573C29.2653 38.8164 29.0184 38.8164 28.8538 38.8164M17.7815 39.2247C17.3698 38.9389 16.7936 38.8166 16.1762 38.8166C15.1884 38.8166 14.5299 39.3063 14.5299 40.0818C14.5299 40.735 15.0238 41.1022 15.8882 41.2247L16.2997 41.2656C16.7525 41.3471 16.9995 41.4696 16.9995 41.6738C16.9995 41.9593 16.6702 42.1635 16.0938 42.1635C15.5175 42.1635 15.0648 41.9593 14.7767 41.7554L14.3651 42.4084C14.8179 42.7349 15.4353 42.8981 16.0526 42.8981C17.2052 42.8981 17.8638 42.3676 17.8638 41.6328C17.8638 40.939 17.3287 40.5716 16.5054 40.4492L16.0938 40.4083C15.7233 40.3674 15.4353 40.286 15.4353 40.0411C15.4353 39.7553 15.7233 39.5921 16.1762 39.5921C16.6702 39.5921 17.1641 39.796 17.411 39.9186L17.7815 39.2247ZM40.7493 38.8166C40.2553 38.8166 39.926 39.0614 39.7202 39.3879V38.8982H38.8558V42.8165H39.7202V40.6125C39.7202 39.9595 40.0083 39.5921 40.5433 39.5921C40.7081 39.5921 40.914 39.633 41.0786 39.6737L41.3255 38.8575C41.1609 38.8166 40.914 38.8166 40.7493 38.8166ZM29.7182 40.8573C29.7182 42.041 30.5413 42.8981 31.8174 42.8981C32.3936 42.8981 32.8052 42.7758 33.2167 42.4493L32.8052 41.7554C32.4759 42.0002 32.1467 42.1226 31.7762 42.1226C31.0764 42.1226 30.5825 41.6328 30.5825 40.8573C30.5825 40.1227 31.0764 39.6328 31.7762 39.5921C32.1467 39.5921 32.4759 39.7144 32.8052 39.9595L33.2167 39.2656C32.8052 38.9389 32.3936 38.8166 31.8174 38.8166C30.5413 38.8166 29.7182 39.6737 29.7182 40.8573ZM37.7034 40.8573V38.8982H36.839V39.3879C36.5508 39.0207 36.1393 38.8166 35.6042 38.8166C34.4928 38.8166 33.6285 39.6737 33.6285 40.8573C33.6285 42.041 34.4928 42.8981 35.6042 42.8981C36.1803 42.8981 36.5921 42.6941 36.839 42.3267V42.8165H37.7034V40.8573ZM34.5339 40.8573C34.5339 40.1634 34.9867 39.5921 35.7275 39.5921C36.4273 39.5921 36.9213 40.1227 36.9213 40.8573C36.9213 41.5512 36.4273 42.1226 35.7275 42.1226C34.9867 42.0817 34.5339 41.5512 34.5339 40.8573ZM24.2027 38.8166C23.0501 38.8166 22.2268 39.6328 22.2268 40.8573C22.2268 42.0819 23.0499 42.8981 24.2437 42.8981C24.8199 42.8981 25.3963 42.7349 25.8491 42.3676L25.4373 41.7554C25.1081 42.0002 24.6965 42.1635 24.285 42.1635C23.7498 42.1635 23.2147 41.9186 23.0912 41.2245H26.0137V40.8982C26.055 39.6328 25.3142 38.8166 24.2027 38.8166ZM24.2025 39.5512C24.7374 39.5512 25.1081 39.8779 25.1902 40.4901H23.1322C23.2145 39.9595 23.585 39.5512 24.2025 39.5512ZM45.6472 40.8573V37.3472H44.7828V39.3879C44.4947 39.0207 44.0831 38.8166 43.548 38.8166C42.4367 38.8166 41.5723 39.6737 41.5723 40.8573C41.5723 42.041 42.4367 42.8981 43.548 42.8981C44.1243 42.8981 44.5359 42.6941 44.7828 42.3267V42.8165H45.6472V40.8573ZM42.4779 40.8573C42.4779 40.1634 42.9305 39.5921 43.6715 39.5921C44.3713 39.5921 44.8652 40.1227 44.8652 40.8573C44.8652 41.5512 44.3713 42.1226 43.6715 42.1226C42.9305 42.0817 42.4779 41.5512 42.4779 40.8573ZM13.5828 40.8573V38.8982H12.7185V39.3879C12.4303 39.0207 12.0187 38.8166 11.4836 38.8166C10.3723 38.8166 9.5079 39.6737 9.5079 40.8573C9.5079 42.041 10.3723 42.8981 11.4836 42.8981C12.06 42.8981 12.4715 42.6941 12.7185 42.3267V42.8165H13.5828V40.8573ZM10.3723 40.8573C10.3723 40.1634 10.8251 39.5921 11.5659 39.5921C12.2657 39.5921 12.7597 40.1227 12.7597 40.8573C12.7597 41.5512 12.2657 42.1226 11.5659 42.1226C10.8251 42.0817 10.3723 41.5512 10.3723 40.8573Z" fill="black"/>
<path d="M17.4934 9.14258H30.459V32.2445H17.4934V9.14258Z" fill="#FF5F00"/>
<path d="M18.3167 20.6938C18.3167 16 20.5393 11.8367 23.9556 9.14277C21.4449 7.18363 18.2756 6 14.8181 6C6.62681 6 0 12.5713 0 20.6938C0 28.8164 6.62681 35.3877 14.8179 35.3877C18.2754 35.3877 21.4448 34.204 23.9556 32.2447C20.5393 29.5917 18.3167 25.3876 18.3167 20.6938Z" fill="#EB001B"/>
<path d="M47.9524 20.6938C47.9524 28.8162 41.3256 35.3877 33.1345 35.3877C29.677 35.3877 26.5076 34.204 23.9968 32.2447C27.4543 29.551 29.6359 25.3876 29.6359 20.6938C29.6359 16 27.4131 11.8367 23.9968 9.14277C26.5075 7.18363 29.677 6 33.1345 6C41.3256 6 47.9524 12.6122 47.9524 20.6938Z" fill="#F79E1B"/>
</svg>
