<svg width="80" height="80" viewBox="0 0 80 80" fill="none" xmlns="http://www.w3.org/2000/svg">
<path d="M18.96 63.7201C16.5333 63.7201 14.4767 62.8723 12.79 61.1767C11.1011 59.4812 10.2567 57.4223 10.2567 55.0001H8.33335C7.57113 55.0001 6.93224 54.7423 6.41668 54.2267C5.90113 53.7112 5.64224 53.0712 5.64001 52.3067V22.0534C5.64001 20.5179 6.15446 19.2367 7.18335 18.2101C8.21224 17.1834 9.49335 16.669 11.0267 16.6667H49.7433C51.2256 16.6667 52.4933 17.1945 53.5467 18.2501C54.6 19.3056 55.1278 20.5723 55.13 22.0501V28.7167H60.13C60.9811 28.7167 61.7878 28.9079 62.55 29.2901C63.3145 29.6723 63.9434 30.2001 64.4367 30.8734L73.82 43.5067C74 43.7312 74.1345 43.9779 74.2234 44.2467C74.3122 44.5156 74.3567 44.8079 74.3567 45.1234V52.3067C74.3567 53.0712 74.1 53.7112 73.5867 54.2267C73.0734 54.7423 72.4334 55.0001 71.6667 55.0001H68.9734C68.9734 57.4223 68.1245 59.4812 66.4267 61.1767C64.7289 62.8723 62.6678 63.719 60.2434 63.7167C57.8189 63.7145 55.7611 62.8679 54.07 61.1767C52.3789 59.4856 51.5345 57.4267 51.5367 55.0001H27.6967C27.6967 57.4356 26.8478 59.4979 25.15 61.1867C23.4522 62.8756 21.3867 63.7201 18.96 63.7201ZM18.9767 60.3867C20.4767 60.3867 21.7489 59.8645 22.7933 58.8201C23.8378 57.7756 24.36 56.5023 24.36 55.0001C24.36 53.4979 23.8378 52.2256 22.7933 51.1834C21.7489 50.1412 20.4767 49.619 18.9767 49.6167C17.4767 49.6145 16.2045 50.1367 15.16 51.1834C14.1156 52.2301 13.5933 53.5023 13.5933 55.0001C13.5933 56.4979 14.1156 57.7701 15.16 58.8167C16.2045 59.8634 17.4767 60.389 18.9767 60.3867ZM8.97668 51.6667H11.1333C11.6067 50.1956 12.5722 48.9312 14.03 47.8734C15.4878 46.8156 17.1367 46.2845 18.9767 46.2801C20.7322 46.2801 22.3611 46.8001 23.8633 47.8401C25.3633 48.8779 26.35 50.1534 26.8233 51.6667H51.8V22.0534C51.8 21.4534 51.6067 20.9612 51.22 20.5767C50.8333 20.1923 50.3411 20.0001 49.7433 20.0001H11.0267C10.5133 20.0001 10.0433 20.2134 9.61668 20.6401C9.18779 21.069 8.97335 21.5401 8.97335 22.0534L8.97668 51.6667ZM60.26 60.3867C61.76 60.3867 63.0322 59.8645 64.0767 58.8201C65.1211 57.7734 65.6434 56.5001 65.6434 55.0001C65.6434 53.5001 65.1211 52.2279 64.0767 51.1834C63.0322 50.139 61.76 49.6167 60.26 49.6167C58.76 49.6167 57.4878 50.139 56.4434 51.1834C55.3989 52.2279 54.8767 53.5001 54.8767 55.0001C54.8767 56.5001 55.3989 57.7723 56.4434 58.8167C57.4878 59.8612 58.76 60.3867 60.26 60.3867ZM55.1267 45.0001H70.8334L61.6667 32.8867C61.4534 32.629 61.2078 32.4256 60.93 32.2767C60.6522 32.1279 60.3422 32.0534 60 32.0534H55.13L55.1267 45.0001Z" fill="black"/>
</svg>
