<svg width="80" height="80" viewBox="0 0 80 80" fill="none" xmlns="http://www.w3.org/2000/svg">
<path d="M15 7.5C15 6.83696 14.7366 6.20107 14.2678 5.73223C13.7989 5.26339 13.163 5 12.5 5C11.837 5 11.2011 5.26339 10.7322 5.73223C10.2634 6.20107 9.99999 6.83696 9.99999 7.5V66.5L4.24999 60.75C3.77849 60.2946 3.14698 60.0426 2.49149 60.0483C1.836 60.054 1.20897 60.3169 0.745447 60.7805C0.281927 61.244 0.0190047 61.871 0.0133086 62.5265C0.00761257 63.182 0.259599 63.8135 0.714994 64.285L10.715 74.285C11.1838 74.7537 11.8196 75.017 12.4825 75.017C13.1454 75.017 13.7812 74.7537 14.25 74.285L24.25 64.285C24.7054 63.8135 24.9574 63.182 24.9517 62.5265C24.946 61.871 24.6831 61.244 24.2195 60.7805C23.756 60.3169 23.129 60.054 22.4735 60.0483C21.818 60.0426 21.1865 60.2946 20.715 60.75L14.965 66.5V7.5H15ZM55 22.5C55 21.837 54.7366 21.2011 54.2678 20.7322C53.7989 20.2634 53.163 20 52.5 20C51.837 20 51.2011 20.2634 50.7322 20.7322C50.2634 21.2011 50 21.837 50 22.5V37.5C50 37.9639 50.1291 38.4186 50.3728 38.8133C50.6165 39.2081 50.9653 39.5272 51.38 39.735L61.38 44.735C61.9734 45.0314 62.6603 45.0799 63.2895 44.8698C63.9186 44.6598 64.4386 44.2084 64.735 43.615C65.0314 43.0216 65.0799 42.3347 64.8698 41.7055C64.6598 41.0764 64.2084 40.5564 63.615 40.26L55.015 35.95V22.5H55Z" fill="black"/>
<path fill-rule="evenodd" clip-rule="evenodd" d="M52.5 10C37.3 10 25 22.3 25 37.5C25 52.7 37.3 65 52.5 65C67.7 65 80 52.7 80 37.5C80 22.3 67.7 10 52.5 10ZM30 37.5C30 25.05 40.05 15 52.5 15C64.95 15 75 25.05 75 37.5C75 49.95 64.95 60 52.5 60C40.05 60 30 49.95 30 37.5Z" fill="black"/>
</svg>
