<svg width="48" height="48" viewBox="0 0 48 48" fill="none" xmlns="http://www.w3.org/2000/svg">
<path d="M7.5 9C5.0325 9 3 11.0325 3 13.5V34.5C3 36.9675 5.0325 39 7.5 39H40.5C42.9675 39 45 36.9675 45 34.5V13.5C45 11.0325 42.9675 9 40.5 9H7.5ZM7.5 12H40.5C41.349 12 42 12.651 42 13.5V34.5C42 35.349 41.349 36 40.5 36H7.5C6.651 36 6 35.349 6 34.5V13.5C6 12.651 6.651 12 7.5 12ZM29.109 18.5625C26.22 18.5625 24.7035 19.9875 24.7035 21.7965C24.7035 25.0665 28.5465 24.6165 28.5465 26.2965C28.5465 26.5845 28.3065 27.234 26.7195 27.234C25.1295 27.234 24.0945 26.6715 24.0945 26.6715L23.625 28.8285C23.625 28.8285 24.609 29.4375 26.5785 29.4375C28.5465 29.4375 31.3125 27.9255 31.3125 25.734C31.3125 23.097 27.468 22.9215 27.468 21.75C27.468 21.153 27.978 20.6715 29.343 20.6715C30.234 20.6715 31.218 21.375 31.218 21.375L31.6875 19.0785C31.6875 19.0785 30.381 18.5625 29.109 18.5625ZM16.782 18.75L14.25 26.157C14.25 26.157 14.121 25.518 14.0625 25.125C12.633 21.915 10.3125 20.718 10.3125 20.718L12.516 29.109H15.516L19.734 18.75H16.782ZM20.8125 18.75L19.1715 29.109H21.9375L23.5785 18.75H20.8125ZM35.7195 18.75L31.2195 29.109H33.9375L34.5 27.657H37.9695L38.25 29.109H40.734L38.625 18.75H35.7195ZM7.2645 18.7965C7.2645 18.7965 12.6615 20.4495 13.9215 24.516L12.984 19.8285C12.984 19.8285 12.5745 18.7965 11.484 18.7965H7.2645ZM36.75 21.75L37.5465 25.641H35.2965L36.75 21.75Z" fill="#2A62A2"/>
</svg>
